<svg width="330" height="402" viewBox="0 0 330 402" fill="none" xmlns="http://www.w3.org/2000/svg">
<path d="M278.98 402H50.11C36.8249 401.984 24.0884 396.7 14.6944 387.306C5.3004 377.912 0.0158787 365.175 0 351.89V50.11C0.0158787 36.8249 5.3004 24.0884 14.6944 14.6944C24.0884 5.30041 36.8249 0.0158787 50.11 0H200.21C204.185 0.000848813 207.998 1.57982 210.81 4.39L324.69 118.27C326.084 119.663 327.191 121.317 327.946 123.137C328.701 124.958 329.09 126.909 329.09 128.88V351.88C329.077 365.167 323.793 377.906 314.399 387.302C305.005 396.698 292.267 401.984 278.98 402ZM50.11 30C44.7781 30.0053 39.6661 32.1257 35.8959 35.8959C32.1257 39.6661 30.0053 44.7781 30 50.11V351.89C30.0053 357.222 32.1257 362.334 35.8959 366.104C39.6661 369.874 44.7781 371.995 50.11 372H278.98C284.312 371.995 289.424 369.874 293.194 366.104C296.964 362.334 299.085 357.222 299.09 351.89V135.09L193.99 30H50.11Z" fill="black"/>
<path d="M314.09 143.88H235.34C222.055 143.864 209.319 138.58 199.925 129.186C190.531 119.792 185.246 107.055 185.23 93.77V15C185.23 11.0218 186.811 7.20644 189.624 4.3934C192.437 1.58035 196.252 0 200.23 0C204.209 0 208.024 1.58035 210.837 4.3934C213.65 7.20644 215.23 11.0218 215.23 15V93.77C215.236 99.1019 217.356 104.214 221.126 107.984C224.897 111.754 230.009 113.875 235.34 113.88H314.11C318.089 113.88 321.904 115.46 324.717 118.273C327.53 121.086 329.11 124.902 329.11 128.88C329.11 132.858 327.53 136.674 324.717 139.487C321.904 142.3 318.089 143.88 314.11 143.88H314.09Z" fill="black"/>
<path d="M111.97 310.06C109.997 310.064 108.042 309.678 106.218 308.925C104.394 308.171 102.736 307.065 101.34 305.67L61.0402 265.36C58.2282 262.547 56.6484 258.733 56.6484 254.755C56.6484 250.778 58.2282 246.963 61.0402 244.15L101.34 203.85C104.153 201.036 107.968 199.455 111.947 199.454C115.925 199.453 119.741 201.033 122.555 203.845C125.369 206.658 126.951 210.473 126.952 214.452C126.952 218.43 125.373 222.246 122.56 225.06L92.8602 254.76L122.56 284.45C124.659 286.548 126.089 289.222 126.668 292.132C127.248 295.043 126.951 298.06 125.815 300.802C124.679 303.543 122.755 305.886 120.287 307.535C117.819 309.183 114.918 310.062 111.95 310.06H111.97Z" fill="black"/>
<path d="M217.11 310.06C214.143 310.059 211.243 309.179 208.777 307.53C206.31 305.881 204.388 303.538 203.253 300.796C202.119 298.055 201.823 295.039 202.402 292.129C202.982 289.219 204.411 286.547 206.51 284.45L236.2 254.76L206.51 225.06C205.077 223.676 203.935 222.021 203.148 220.191C202.362 218.361 201.949 216.393 201.931 214.401C201.914 212.409 202.293 210.434 203.048 208.591C203.802 206.747 204.916 205.072 206.324 203.664C207.732 202.256 209.407 201.142 211.251 200.388C213.094 199.633 215.069 199.254 217.061 199.271C219.053 199.288 221.021 199.702 222.851 200.488C224.681 201.274 226.336 202.417 227.72 203.85L268.02 244.15C270.832 246.963 272.412 250.777 272.412 254.755C272.412 258.732 270.832 262.547 268.02 265.36L227.72 305.67C226.326 307.063 224.672 308.167 222.852 308.92C221.031 309.673 219.08 310.061 217.11 310.06Z" fill="black"/>
<path d="M152.56 334.26C151.654 334.261 150.75 334.177 149.86 334.01C147.921 333.659 146.071 332.928 144.415 331.862C142.759 330.795 141.329 329.412 140.207 327.793C139.085 326.173 138.294 324.348 137.877 322.423C137.461 320.497 137.428 318.509 137.78 316.57L161.78 184.57C162.492 180.65 164.732 177.174 168.007 174.906C171.283 172.637 175.325 171.763 179.245 172.475C183.165 173.187 186.641 175.428 188.909 178.703C191.178 181.978 192.052 186.02 191.34 189.94L167.34 321.94C166.711 325.401 164.887 328.53 162.185 330.782C159.484 333.034 156.077 334.265 152.56 334.26Z" fill="black"/>
</svg>
