<svg width="730" height="730" viewBox="0 0 730 730" fill="none" xmlns="http://www.w3.org/2000/svg">
<circle cx="365" cy="365" r="365" fill="#FAFD96"/>
<path d="M438.92 566H211C207.022 566 203.206 564.419 200.393 561.606C197.58 558.793 196 554.978 196 551V259.93C196 255.951 197.58 252.136 200.393 249.323C203.206 246.51 207.022 244.93 211 244.93H438.92C442.898 244.93 446.714 246.51 449.527 249.323C452.34 252.136 453.92 255.951 453.92 259.93V551C453.92 554.978 452.34 558.793 449.527 561.606C446.714 564.419 442.898 566 438.92 566ZM226 536H423.92V274.93H226V536Z" fill="black"/>
<path d="M519.85 485.07H438.92C434.941 485.07 431.126 483.49 428.313 480.677C425.5 477.864 423.92 474.048 423.92 470.07C423.92 466.092 425.5 462.276 428.313 459.463C431.126 456.65 434.941 455.07 438.92 455.07H504.85V194H306.93V259.92C306.93 263.898 305.349 267.714 302.536 270.527C299.723 273.34 295.908 274.92 291.93 274.92C287.951 274.92 284.136 273.34 281.323 270.527C278.51 267.714 276.93 263.898 276.93 259.92V179C276.93 175.022 278.51 171.206 281.323 168.393C284.136 165.58 287.951 164 291.93 164H519.85C523.828 164 527.643 165.58 530.456 168.393C533.269 171.206 534.85 175.022 534.85 179V470.07C534.85 474.048 533.269 477.864 530.456 480.677C527.643 483.49 523.828 485.07 519.85 485.07Z" fill="black"/>
</svg>
