<svg width="730" height="730" viewBox="0 0 730 730" fill="none" xmlns="http://www.w3.org/2000/svg">
<circle cx="365" cy="365" r="365" fill="#FAFD96"/>
<path d="M510.976 304.743C507.912 304.74 504.852 304.529 501.816 304.113C483.926 301.713 466.316 292.633 452.246 278.563C438.176 264.483 429.096 246.883 426.686 228.983C424.116 209.863 429.616 191.913 441.796 179.733C453.976 167.553 471.926 162.043 491.046 164.623C508.946 167.033 526.556 176.103 540.626 190.183C554.696 204.263 563.776 221.863 566.186 239.753C568.756 258.883 563.246 276.833 551.076 289.013C540.866 299.213 526.596 304.743 510.976 304.743ZM473.456 257.343C482.766 266.663 494.566 272.873 505.826 274.343C515.736 275.683 524.276 273.343 529.826 267.753C535.376 262.163 537.756 253.633 536.416 243.753C534.906 232.493 528.696 220.693 519.416 211.383C501.306 193.273 475.466 188.493 463.006 200.943C450.546 213.393 455.336 239.233 473.456 257.343Z" fill="black"/>
<path d="M296.667 519.043C293.606 519.043 290.549 518.836 287.517 518.423C269.617 516.013 252.007 506.943 237.937 492.863C223.867 478.783 214.787 461.183 212.377 443.293C209.807 424.163 215.317 406.213 227.487 394.033C230.301 391.22 234.117 389.639 238.097 389.639C242.076 389.639 245.893 391.22 248.707 394.033C251.521 396.847 253.102 400.664 253.102 404.643C253.102 408.623 251.521 412.44 248.707 415.253C243.117 420.833 240.777 429.373 242.107 439.253C243.627 450.513 249.837 462.313 259.107 471.623C277.307 489.803 303.097 494.553 315.557 482.103C316.94 480.671 318.596 479.528 320.426 478.742C322.256 477.956 324.224 477.542 326.216 477.525C328.207 477.507 330.183 477.887 332.026 478.641C333.869 479.395 335.544 480.509 336.953 481.918C338.361 483.326 339.475 485.001 340.229 486.844C340.983 488.688 341.363 490.663 341.345 492.654C341.328 494.646 340.914 496.614 340.128 498.445C339.342 500.275 338.199 501.93 336.767 503.313C326.557 513.523 312.307 519.043 296.667 519.043Z" fill="black"/>
<path d="M178.996 566.803C176.751 566.802 174.534 566.297 172.51 565.326C170.485 564.354 168.705 562.94 167.299 561.189C165.894 559.437 164.9 557.392 164.391 555.205C163.882 553.018 163.87 550.745 164.356 548.553C164.616 547.383 170.816 519.553 179.426 488.853C195.586 431.253 205.336 416.183 212.026 409.493L441.796 179.733C443.18 178.3 444.835 177.157 446.665 176.371C448.495 175.585 450.464 175.171 452.455 175.154C454.447 175.137 456.422 175.516 458.266 176.27C460.109 177.025 461.784 178.138 463.192 179.547C464.601 180.955 465.714 182.63 466.469 184.473C467.223 186.317 467.602 188.292 467.585 190.284C467.568 192.275 467.154 194.244 466.368 196.074C465.582 197.904 464.439 199.559 463.006 200.943L233.246 430.713C232.336 431.613 223.976 441.143 208.306 496.963C204.796 509.473 201.656 521.653 199.206 531.603C209.206 529.133 221.416 525.993 233.956 522.463C289.676 506.823 299.196 498.463 300.096 497.563L529.856 267.803C532.669 264.989 536.484 263.407 540.463 263.406C544.441 263.405 548.257 264.985 551.071 267.798C553.885 270.61 555.467 274.426 555.468 278.404C555.469 282.383 553.889 286.199 551.076 289.013L321.306 518.803C314.616 525.493 299.556 535.243 241.946 551.413C211.296 560.013 183.416 566.213 182.246 566.473C181.178 566.701 180.088 566.811 178.996 566.803Z" fill="black"/>
<path d="M498.936 251.873C496.965 251.873 495.014 251.484 493.193 250.729C491.373 249.974 489.719 248.868 488.326 247.473L483.326 242.473C480.594 239.644 479.082 235.855 479.116 231.922C479.15 227.989 480.728 224.227 483.509 221.446C486.29 218.665 490.052 217.087 493.985 217.053C497.918 217.019 501.707 218.531 504.536 221.263L509.536 226.263C511.634 228.361 513.064 231.033 513.644 233.943C514.223 236.852 513.927 239.869 512.792 242.61C511.658 245.351 509.736 247.695 507.269 249.343C504.803 250.992 501.903 251.873 498.936 251.873Z" fill="black"/>
</svg>
