<svg width="730" height="730" viewBox="0 0 730 730" fill="none" xmlns="http://www.w3.org/2000/svg">
<circle cx="365" cy="365" r="365" fill="#FAFD96"/>
<path d="M364.97 550.94C467.678 550.94 550.94 467.678 550.94 364.97C550.94 262.262 467.678 179 364.97 179C262.262 179 179 262.262 179 364.97C179 467.678 262.262 550.94 364.97 550.94Z" stroke="black" stroke-width="30" stroke-linecap="round" stroke-linejoin="round"/>
<path d="M414.33 251.22C384.345 251.501 355.684 263.61 334.58 284.912C313.476 306.215 301.637 334.988 301.637 364.975C301.637 394.961 313.476 423.735 334.58 445.037C355.684 466.34 384.345 478.449 414.33 478.73" stroke="black" stroke-width="30" stroke-linecap="round" stroke-linejoin="round"/>
<path d="M268.06 340.54H403.07" stroke="black" stroke-width="30" stroke-linecap="round" stroke-linejoin="round"/>
<path d="M403.07 389.41H268.06" stroke="black" stroke-width="30" stroke-linecap="round" stroke-linejoin="round"/>
</svg>
