<svg width="730" height="730" viewBox="0 0 730 730" fill="none" xmlns="http://www.w3.org/2000/svg">
<circle cx="365" cy="365" r="365" fill="#FAFD96"/>
<path d="M268.87 563.227H179C175.022 563.227 171.206 561.646 168.393 558.833C165.58 556.02 164 552.205 164 548.227V426.227C164 422.248 165.58 418.433 168.393 415.62C171.206 412.807 175.022 411.227 179 411.227H268.87C272.848 411.227 276.664 412.807 279.477 415.62C282.29 418.433 283.87 422.248 283.87 426.227V548.227C283.87 552.205 282.29 556.02 279.477 558.833C276.664 561.646 272.848 563.227 268.87 563.227ZM194 533.227H253.87V441.227H194V533.227Z" fill="black"/>
<path d="M409.94 563.227H320.07C316.092 563.227 312.277 561.647 309.464 558.834C306.651 556.02 305.07 552.205 305.07 548.227V373.337C305.07 369.359 306.651 365.543 309.464 362.73C312.277 359.917 316.092 358.337 320.07 358.337H409.94C413.919 358.337 417.734 359.917 420.547 362.73C423.36 365.543 424.94 369.359 424.94 373.337V548.227C424.94 552.205 423.36 556.02 420.547 558.834C417.734 561.647 413.919 563.227 409.94 563.227ZM335.07 533.227H394.94V388.337H335.07V533.227Z" fill="black"/>
<path d="M551 563.227H461.14C457.161 563.227 453.346 561.646 450.533 558.833C447.72 556.02 446.14 552.205 446.14 548.227V312.967C446.14 308.989 447.72 305.173 450.533 302.36C453.346 299.547 457.161 297.967 461.14 297.967H551C554.978 297.967 558.793 299.547 561.606 302.36C564.419 305.173 566 308.989 566 312.967V548.227C566 552.205 564.419 556.02 561.606 558.833C558.793 561.646 554.978 563.227 551 563.227ZM476.14 533.227H536V327.967H476.14V533.227Z" fill="black"/>
<path d="M462.94 267.147C460.373 267.145 457.85 266.485 455.611 265.229C453.373 263.974 451.494 262.165 450.154 259.975C448.815 257.786 448.06 255.289 447.961 252.725C447.862 250.16 448.423 247.613 449.59 245.327L466.45 212.227L433.36 195.377C431.601 194.485 430.036 193.254 428.753 191.756C427.47 190.259 426.496 188.522 425.885 186.647C425.274 184.772 425.038 182.795 425.192 180.829C425.346 178.863 425.886 176.947 426.781 175.19C427.677 173.433 428.91 171.87 430.41 170.59C431.91 169.31 433.648 168.338 435.524 167.73C437.4 167.122 439.377 166.89 441.343 167.048C443.309 167.205 445.224 167.748 446.98 168.647L493.44 192.317C496.982 194.124 499.662 197.264 500.89 201.046C502.118 204.828 501.795 208.943 499.99 212.487L476.32 258.947C475.064 261.416 473.149 263.489 470.788 264.936C468.426 266.383 465.71 267.149 462.94 267.147Z" fill="black"/>
<path d="M208.73 310.977C205.157 310.979 201.7 309.705 198.983 307.385C196.265 305.064 194.465 301.85 193.907 298.321C193.349 294.791 194.069 291.178 195.937 288.133C197.806 285.087 200.701 282.808 204.1 281.707L477.24 192.957C481.01 191.777 485.093 192.132 488.603 193.945C492.112 195.757 494.765 198.881 495.986 202.637C497.207 206.394 496.896 210.48 495.122 214.01C493.348 217.539 490.253 220.226 486.51 221.487L213.37 310.227C211.873 310.719 210.307 310.973 208.73 310.977Z" fill="black"/>
</svg>
