<svg width="96" height="96" viewBox="0 0 96 96" fill="none" xmlns="http://www.w3.org/2000/svg">
<path d="M84 0H42C35.3813 0 30 5.37188 30 12V54C30 60.6281 35.3719 66 42 66H84C90.6281 66 96 60.6281 96 54V12C96 5.37188 90.6187 0 84 0ZM87 54C87 55.6541 85.6541 57 84 57H42C40.35 57 39 55.65 39 54V12C39 10.3459 40.3459 9 42 9H84C85.6541 9 87 10.3459 87 12V54ZM57 84C57 85.6541 55.6541 87 54 87H12C10.3459 87 9 85.6541 9 84V42C9 40.3459 10.3459 39 12 39H24V30H12C5.37188 30 0 35.3813 0 42V84C0 90.6281 5.37188 96 12 96H54C60.6281 96 66 90.6281 66 84V72H57V84Z" fill="#FAFD96"/>
</svg>
