<svg width="96" height="96" viewBox="0 0 96 96" fill="none" xmlns="http://www.w3.org/2000/svg">
<path d="M41.8159 48.3375C40.3308 46.8727 37.9245 46.8727 36.4397 48.3375L27.3147 57.3375C25.8296 58.8022 25.8296 61.1813 27.3147 62.6456L36.4397 71.6456C37.1964 72.3938 38.1659 72.75 39.1354 72.75C40.1049 72.75 41.0802 72.3866 41.8235 71.6542C43.3086 70.1895 43.3086 67.8105 41.8235 66.3461L35.3904 60L41.8273 53.655C43.1466 52.1813 43.1466 49.8187 41.8159 48.3375ZM80.4451 17.5087L66.2576 3.51375C63.963 1.26412 60.8643 0 57.6516 0H23.1667C16.4465 0 11 5.37188 11 12L11.0012 84C11.0012 90.6263 16.4477 96 23.1679 96H71.8333C78.525 96 84 90.6 84 84V25.9875C84 22.8188 82.7263 19.7625 80.4451 17.5087ZM74.875 84C74.875 85.6568 73.5131 87 71.8333 87H23.1705C21.4903 87 20.1288 85.6568 20.1288 84L20.125 12.0244C20.125 10.3676 21.4869 9.02438 23.1667 9.02438H53.5833V24C53.5833 27.3131 56.3075 30 59.6667 30H74.7039V84H74.875ZM53.1841 48.3375C51.699 49.8022 51.699 52.1812 53.1841 53.6456L59.6096 60L53.1727 66.345C51.6876 67.8097 51.6876 70.1887 53.1727 71.6531C53.9255 72.3937 54.8951 72.75 55.8646 72.75C56.8341 72.75 57.8093 72.3866 58.5527 71.6542L67.6777 62.6542C69.1628 61.1895 69.1628 58.8105 67.6777 57.3461L58.5527 48.3461C57.0622 46.875 54.6669 46.875 53.1841 48.3375Z" fill="#FAFD96"/>
</svg>
