<svg width="96" height="96" viewBox="0 0 96 96" fill="none" xmlns="http://www.w3.org/2000/svg">
<path d="M96 21V12C96 8.68687 93.3131 6 90 6H81C77.6869 6 75 8.68687 75 12H21C21 8.68687 18.3131 6 15 6H6C2.68687 6 0 8.68687 0 12V21C0 24.3131 2.68687 27 6 27V69C2.68687 69 0 71.6869 0 75V84C0 87.3131 2.68687 90 6 90H15C18.3131 90 21 87.3131 21 84H75C75 87.3131 77.6869 90 81 90H90C93.3131 90 96 87.3131 96 84V75C96 71.6869 93.3131 69 90 69V27C93.3188 27 96 24.3188 96 21ZM13.5 82.5H7.5V76.5H13.5V82.5ZM13.5 19.5H7.5V13.5H13.5V19.5ZM81 69C77.6869 69 75 71.6869 75 75H21C21 71.6869 18.3131 69 15 69V27C18.3131 27 21 24.3131 21 21H75C75 24.3131 77.6869 27 81 27V69ZM88.5 82.5H82.5V76.5H88.5V82.5ZM88.5 19.5H82.5V13.5H88.5V19.5ZM54 48V33C54 29.6869 51.3131 27 48 27H27C23.6869 27 21 29.6869 21 33V48C21 51.3131 23.6869 54 27 54H48C51.3188 54 54 51.3188 54 48ZM46.5 46.5H28.5V34.5H46.5V46.5ZM69 42H60V49.5H67.5V61.5H49.5V60H42V63C42 66.3131 44.6869 69 48 69H69C72.3131 69 75 66.3131 75 63V48C75 44.6812 72.3188 42 69 42Z" fill="#FAFD96"/>
</svg>
